<svg width="48" height="48" viewBox="0 0 48 48" fill="none" xmlns="http://www.w3.org/2000/svg">
<path fill-rule="evenodd" clip-rule="evenodd" d="M28.4807 19.778C28.4807 22.2525 26.4747 24.2585 24.0002 24.2585C21.5256 24.2585 19.5196 22.2525 19.5196 19.778C19.5196 17.3035 21.5256 15.2975 24.0002 15.2975C26.4747 15.2975 28.4807 17.3035 28.4807 19.778ZM30.8807 19.778C30.8807 23.578 27.8002 26.6585 24.0002 26.6585C20.2002 26.6585 17.1196 23.578 17.1196 19.778C17.1196 15.978 20.2002 12.8975 24.0002 12.8975C27.8002 12.8975 30.8807 15.978 30.8807 19.778ZM17.233 26.997C17.3723 26.8915 17.5397 26.8266 17.7142 26.8169C18.7109 26.7609 19.0504 27.0526 19.3875 27.5901C19.6964 28.0826 19.4998 28.7487 19.0296 29.0906C17.7274 30.0374 16.7225 31.3446 16.1647 32.8507H31.8344C31.2767 31.3449 30.272 30.0379 28.9702 29.0911C28.5 28.7491 28.3035 28.0829 28.6125 27.5904C28.9499 27.0527 29.2892 26.761 30.2858 26.8173C30.4601 26.8271 30.6275 26.892 30.7667 26.9975C33.0407 28.7211 34.6127 31.2929 34.9901 34.2298C35.0869 34.9836 34.4615 35.6029 33.7015 35.6029H14.2975C13.5375 35.6029 12.9121 34.9836 13.009 34.2298C13.3864 31.2927 14.9587 28.7206 17.233 26.997Z" fill="#7E57C2"/>
</svg>
