<svg width="48" height="48" viewBox="0 0 48 48" fill="none" xmlns="http://www.w3.org/2000/svg">
<path fill-rule="evenodd" clip-rule="evenodd" d="M28.4807 19.7775C28.4807 22.252 26.4747 24.258 24.0002 24.258C21.5256 24.258 19.5196 22.252 19.5196 19.7775C19.5196 17.303 21.5256 15.297 24.0002 15.297C26.4747 15.297 28.4807 17.303 28.4807 19.7775ZM30.8807 19.7775C30.8807 23.5775 27.8002 26.658 24.0002 26.658C20.2002 26.658 17.1196 23.5775 17.1196 19.7775C17.1196 15.9775 20.2002 12.897 24.0002 12.897C27.8002 12.897 30.8807 15.9775 30.8807 19.7775ZM17.233 26.9965C17.3723 26.891 17.5397 26.8262 17.7142 26.8164C18.7109 26.7604 19.0504 27.0521 19.3875 27.5896C19.6964 28.0821 19.4998 28.7482 19.0296 29.0901C17.7274 30.0369 16.7225 31.3441 16.1647 32.8502H31.8344C31.2767 31.3444 30.272 30.0374 28.9702 29.0906C28.5 28.7486 28.3035 28.0824 28.6125 27.5899C28.9499 27.0522 29.2892 26.7605 30.2858 26.8168C30.4601 26.8267 30.6275 26.8915 30.7667 26.997C33.0407 28.7206 34.6127 31.2925 34.9901 34.2293C35.0869 34.9831 34.4615 35.6024 33.7015 35.6024H14.2975C13.5375 35.6024 12.9121 34.9831 13.009 34.2293C13.3864 31.2922 14.9587 28.7201 17.233 26.9965Z" fill="#606060"/>
</svg>
