<svg width="48" height="48" viewBox="0 0 48 48" fill="none" xmlns="http://www.w3.org/2000/svg">
<path fill-rule="evenodd" clip-rule="evenodd" d="M22.3574 15.131C20.0845 13.0126 16.442 15.1156 17.1402 18.1432L17.4668 19.5593C17.567 19.9941 17.3139 20.4325 16.8872 20.5631L15.4976 20.9883C12.5265 21.8974 12.5265 26.1034 15.4976 27.0125L16.8872 27.4378C17.3139 27.5684 17.567 28.0067 17.4668 28.4416L17.1402 29.8577C16.442 32.8852 20.0845 34.9882 22.3574 32.8698L23.4204 31.8789C23.7469 31.5747 24.2531 31.5747 24.5795 31.8789L25.6426 32.8698C27.9155 34.9882 31.558 32.8852 30.8598 29.8577L30.5332 28.4416C30.4329 28.0067 30.686 27.5684 31.1128 27.4378L32.5024 27.0125C35.4735 26.1034 35.4734 21.8974 32.5024 20.9883L31.1128 20.5631C30.686 20.4325 30.4329 19.9941 30.5332 19.5592L30.8598 18.1432C31.558 15.1156 27.9155 13.0126 25.6426 15.131L24.5795 16.1219C24.2531 16.4262 23.7469 16.4262 23.4204 16.1219L22.3574 15.131ZM19.3814 17.6263C19.193 16.8094 20.1759 16.2419 20.7892 16.8135L21.8523 17.8044C23.0621 18.932 24.9379 18.932 26.1477 17.8044L27.2108 16.8135C27.8241 16.2419 28.807 16.8094 28.6186 17.6263L28.292 19.0424C27.9204 20.6539 28.8583 22.2785 30.4398 22.7624L31.8294 23.1876C32.6311 23.4329 32.6311 24.5679 31.8294 24.8132L30.4398 25.2384C28.8583 25.7224 27.9204 27.3469 28.292 28.9584L28.6186 30.3745C28.807 31.1915 27.8241 31.7589 27.2108 31.1873L26.1477 30.1964C24.9379 29.0688 23.0621 29.0688 21.8523 30.1964L20.7892 31.1873C20.1759 31.7589 19.193 31.1915 19.3814 30.3745L19.7079 28.9584C20.0796 27.3469 19.1416 25.7224 17.5602 25.2384L16.1706 24.8132C15.3689 24.5679 15.3689 23.4329 16.1706 23.1876L17.5602 22.7624C19.1416 22.2785 20.0796 20.6539 19.7079 19.0424L19.3814 17.6263ZM25.1293 23.3482C25.4893 23.9719 25.2756 24.7693 24.652 25.1294C24.0283 25.4895 23.2308 25.2758 22.8708 24.6521C22.5107 24.0285 22.7244 23.231 23.348 22.8709C23.9717 22.5108 24.7692 22.7245 25.1293 23.3482ZM27.1211 22.1982C28.1163 23.9219 27.5257 26.1261 25.802 27.1213C24.0782 28.1165 21.8741 27.5259 20.8789 25.8021C19.8837 24.0784 20.4743 21.8743 22.198 20.8791C23.9218 19.8839 26.1259 20.4745 27.1211 22.1982Z" fill="#7E57C2"/>
</svg>
