<svg width="48" height="48" viewBox="0 0 48 48" fill="none" xmlns="http://www.w3.org/2000/svg">
<path fill-rule="evenodd" clip-rule="evenodd" d="M22.3574 15.1308C20.0845 13.0124 16.442 15.1153 17.1402 18.1429L17.4668 19.559C17.5671 19.9938 17.314 20.4322 16.8872 20.5628L15.4976 20.988C12.5265 21.8972 12.5265 26.1031 15.4976 27.0123L16.8872 27.4375C17.314 27.5681 17.5671 28.0065 17.4668 28.4413L17.1402 29.8574C16.442 32.885 20.0845 34.988 22.3574 32.8695L23.4205 31.8787C23.7469 31.5744 24.2531 31.5744 24.5796 31.8787L25.6426 32.8695C27.9155 34.988 31.558 32.885 30.8598 29.8574L30.5332 28.4413C30.433 28.0065 30.6861 27.5681 31.1128 27.4375L32.5024 27.0123C35.4735 26.1031 35.4735 21.8972 32.5024 20.988L31.1128 20.5628C30.6861 20.4322 30.433 19.9938 30.5332 19.559L30.8598 18.1429C31.558 15.1153 27.9155 13.0124 25.6426 15.1308L24.5796 16.1216C24.2531 16.4259 23.7469 16.4259 23.4205 16.1216L22.3574 15.1308ZM19.3814 17.6261C19.193 16.8091 20.1759 16.2416 20.7892 16.8133L21.8523 17.8041C23.0621 18.9317 24.9379 18.9317 26.1477 17.8041L27.2108 16.8133C27.8241 16.2416 28.807 16.8091 28.6186 17.6261L28.2921 19.0422C27.9204 20.6537 28.8584 22.2782 30.4398 22.7621L31.8294 23.1874C32.6311 23.4327 32.6311 24.5676 31.8294 24.813L30.4398 25.2382C28.8584 25.7221 27.9204 27.3466 28.2921 28.9582L28.6186 30.3742C28.807 31.1912 27.8241 31.7587 27.2108 31.187L26.1477 30.1962C24.9379 29.0686 23.0621 29.0686 21.8523 30.1962L20.7892 31.187C20.1759 31.7587 19.193 31.1912 19.3814 30.3742L19.708 28.9582C20.0796 27.3466 19.1417 25.7221 17.5602 25.2382L16.1706 24.813C15.3689 24.5676 15.3689 23.4327 16.1706 23.1874L17.5602 22.7621C19.1417 22.2782 20.0796 20.6537 19.708 19.0422L19.3814 17.6261ZM25.1293 23.3479C25.4894 23.9716 25.2757 24.7691 24.652 25.1291C24.0283 25.4892 23.2309 25.2755 22.8708 24.6519C22.5107 24.0282 22.7244 23.2307 23.3481 22.8707C23.9717 22.5106 24.7692 22.7243 25.1293 23.3479ZM27.1211 22.1979C28.1163 23.9217 27.5257 26.1258 25.802 27.121C24.0783 28.1162 21.8741 27.5256 20.8789 25.8019C19.8837 24.0781 20.4743 21.874 22.1981 20.8788C23.9218 19.8836 26.1259 20.4742 27.1211 22.1979Z" fill="#606060"/>
</svg>
