<svg width="56" height="49" viewBox="0 0 56 49" fill="none" xmlns="http://www.w3.org/2000/svg">
<path d="M2 8C2 4.68629 4.68629 2 8 2H18.5009C20.0758 2 21.5876 2.61924 22.71 3.72409L24.2617 5.25153C26.1323 7.09293 28.652 8.125 31.2769 8.125H48C51.3137 8.125 54 10.8113 54 14.125V41C54 44.3137 51.3137 47 48 47H8C4.68629 47 2 44.3137 2 41V8Z" stroke="#7E57C2" stroke-width="4" stroke-linecap="round" stroke-linejoin="round"/>
<path d="M26.938 38.1104C27.5238 38.6962 28.4735 38.6963 29.0593 38.1105L38.6059 28.5652C39.1917 27.9794 39.1918 27.0297 38.606 26.4439C38.0203 25.858 37.0705 25.858 36.4847 26.4437L27.9989 34.9285L19.5141 26.4427C18.9284 25.8569 17.9786 25.8568 17.3928 26.4425C16.807 27.0283 16.8069 27.978 17.3927 28.5639L26.938 38.1104ZM26.5 16.9998L26.4987 37.0497L29.4987 37.0499L29.5 17L26.5 16.9998Z" fill="#7E57C2"/>
</svg>
