<svg width="14" height="14" viewBox="0 0 14 14" fill="none" xmlns="http://www.w3.org/2000/svg">
<path fill-rule="evenodd" clip-rule="evenodd" d="M7.00001 0.333374C3.32001 0.333374 0.333344 3.32004 0.333344 7.00004C0.333344 10.68 3.32001 13.6667 7.00001 13.6667C10.68 13.6667 13.6667 10.68 13.6667 7.00004C13.6667 3.32004 10.68 0.333374 7.00001 0.333374ZM7.00001 12.3334C4.05334 12.3334 1.66668 9.94671 1.66668 7.00004C1.66668 4.05337 4.05334 1.66671 7.00001 1.66671C9.94668 1.66671 12.3333 4.05337 12.3333 7.00004C12.3333 9.94671 9.94668 12.3334 7.00001 12.3334ZM10.3333 7.00004C10.3333 8.84099 8.84096 10.3334 7.00001 10.3334C5.15906 10.3334 3.66668 8.84099 3.66668 7.00004C3.66668 5.15909 5.15906 3.66671 7.00001 3.66671C8.84096 3.66671 10.3333 5.15909 10.3333 7.00004Z" fill="#F2F2F2"/>
</svg>
