<svg width="14" height="14" viewBox="0 0 14 14" fill="none" xmlns="http://www.w3.org/2000/svg">
<path fill-rule="evenodd" clip-rule="evenodd" d="M7 0.333374C3.31999 0.333374 0.333328 3.32004 0.333328 7.00004C0.333328 10.68 3.31999 13.6667 7 13.6667C10.68 13.6667 13.6667 10.68 13.6667 7.00004C13.6667 3.32004 10.68 0.333374 7 0.333374ZM6.99999 12.3334C4.05333 12.3334 1.66666 9.94671 1.66666 7.00004C1.66666 4.05337 4.05333 1.66671 6.99999 1.66671C9.94666 1.66671 12.3333 4.05337 12.3333 7.00004C12.3333 9.94671 9.94666 12.3334 6.99999 12.3334ZM10.3333 7.00004C10.3333 8.84099 8.84094 10.3334 6.99999 10.3334C5.15905 10.3334 3.66666 8.84099 3.66666 7.00004C3.66666 5.15909 5.15905 3.66671 6.99999 3.66671C8.84094 3.66671 10.3333 5.15909 10.3333 7.00004Z" fill="black" fill-opacity="0.54"/>
</svg>
