<svg width="27" height="26" viewBox="0 0 27 26" fill="none" xmlns="http://www.w3.org/2000/svg">
<path fill-rule="evenodd" clip-rule="evenodd" d="M8.33333 2C8.88562 2 9.33333 2.44772 9.33333 3V7C9.33333 7.55229 8.88562 8 8.33333 8C7.78105 8 7.33333 7.55229 7.33333 7V3C7.33333 2.44772 7.78105 2 8.33333 2ZM17 4.66663H10.3333V6.66663H17V4.66663ZM21 6.66663H23.3333V10.6666H4V6.66663H6.33333V4.66663H3.5C2.67157 4.66663 2 5.3382 2 6.16663V11.6666V22.5C2 23.3284 2.67157 24 3.5 24H23.8333C24.6618 24 25.3333 23.3284 25.3333 22.5V11.6666V6.16663C25.3333 5.3382 24.6618 4.66663 23.8333 4.66663H21V6.66663ZM23.3333 12.6666H4V22H23.3333V12.6666ZM20 3C20 2.44772 19.5523 2 19 2C18.4477 2 18 2.44772 18 3V7C18 7.55229 18.4477 8 19 8C19.5523 8 20 7.55229 20 7V3Z" fill="#7E57C2"/>
</svg>
